<svg width="159" height="30" viewBox="0 0 159 30" fill="none" xmlns="http://www.w3.org/2000/svg">
<path d="M7.16842 23.552C5.14176 23.552 3.45642 22.976 2.11242 21.824C0.704422 20.5654 0.000421882 18.944 0.000421882 16.96C0.000421882 15.1254 0.651089 13.5574 1.95242 12.256C3.29642 10.9547 4.87509 10.304 6.68842 10.304C7.98976 10.304 9.13109 10.6774 10.1124 11.424C11.1791 12.2134 11.7124 13.248 11.7124 14.528C11.7124 15.7654 11.2964 16.7574 10.4644 17.504C9.65376 18.1867 8.62976 18.528 7.39242 18.528C6.56042 18.528 6.01642 18.432 5.76042 18.24L5.72842 18.176C5.79242 18.0907 5.85642 18.048 5.92042 18.048C5.94176 18.048 5.96309 18.0587 5.98442 18.08C6.09109 18.144 6.25109 18.1867 6.46442 18.208C6.69909 18.2294 6.96576 18.24 7.26442 18.24C8.43776 18.24 9.36576 17.8987 10.0484 17.216C10.7311 16.5547 11.0724 15.6374 11.0724 14.464C11.0724 13.312 10.6778 12.384 9.88842 11.68C9.09909 10.9974 8.13909 10.656 7.00842 10.656C5.25909 10.656 3.81909 11.2214 2.68842 12.352C1.57909 13.4614 1.02442 14.9014 1.02442 16.672C1.02442 18.592 1.64309 20.1067 2.88042 21.216C4.07509 22.2827 5.65376 22.816 7.61642 22.816C11.8404 22.816 16.2884 19.6694 20.9604 13.376C24.5658 8.55469 27.3924 5.55736 29.4404 4.38403L22.7204 2.11202C22.2511 1.94136 21.7711 1.82403 21.2804 1.76003C20.8111 1.69602 20.3311 1.66402 19.8404 1.66402C18.1764 1.66402 16.6511 2.10136 15.2644 2.97602C13.7071 4.00002 12.9284 5.30136 12.9284 6.88002C12.9284 7.60536 13.0991 8.30936 13.4404 8.99203C14.1658 10.5067 15.5524 11.264 17.6004 11.264C17.7711 11.264 17.9311 11.264 18.0804 11.264C18.2298 11.264 18.3791 11.2534 18.5284 11.232C19.4671 11.104 20.3098 10.6774 21.0564 9.95203C21.8884 9.14136 22.3044 8.30936 22.3044 7.45603C22.3044 6.81603 22.0378 6.33603 21.5044 6.01603C21.4831 5.99469 21.4724 5.96269 21.4724 5.92002C21.4724 5.87736 21.4938 5.85602 21.5364 5.85602C21.5578 5.85602 21.5684 5.86669 21.5684 5.88803C21.5898 5.88803 21.6111 5.88803 21.6324 5.88803H21.7284C22.4111 6.25069 22.7524 6.83736 22.7524 7.64803C22.7524 8.52269 22.3791 9.35469 21.6324 10.144C20.9498 10.8267 20.1391 11.2854 19.2004 11.52C18.6244 11.6694 18.0058 11.744 17.3444 11.744C15.8511 11.744 14.5818 11.2747 13.5364 10.336C12.4698 9.33336 11.9364 8.08536 11.9364 6.59202C11.9364 4.73603 12.6938 3.24269 14.2084 2.11202C15.5738 1.06669 17.2058 0.544025 19.1044 0.544025C19.2324 0.544025 19.3498 0.544025 19.4564 0.544025C19.5844 0.544025 19.7018 0.554692 19.8084 0.576025C22.3471 0.789358 25.1311 1.65336 28.1604 3.16803C28.3738 3.25336 28.6191 3.38136 28.8964 3.55202C29.1951 3.70136 29.5364 3.89336 29.9204 4.12803C30.9231 3.36002 32.1391 2.97602 33.5684 2.97602C33.8671 2.97602 34.1551 3.00802 34.4324 3.07203C34.7311 3.11469 34.9871 3.20002 35.2004 3.32803C35.7978 3.64803 36.0964 4.09603 36.0964 4.67202C36.0964 5.65336 35.5631 6.14402 34.4964 6.14402C34.1764 6.14402 33.8138 6.09069 33.4084 5.98403C33.0244 5.87736 32.7578 5.78136 32.6084 5.69602C32.3951 6.01603 32.1711 6.35736 31.9364 6.72003C31.7018 7.08269 31.4564 7.47736 31.2004 7.90403C30.8591 8.48003 30.2511 9.84536 29.3764 12C29.0351 12.8534 28.6724 13.6 28.2884 14.24C27.9258 14.88 27.5311 15.4347 27.1044 15.904C25.3764 17.7814 23.3924 19.1574 21.1524 20.032C21.1951 20.032 21.2484 20.032 21.3124 20.032C21.3978 20.0107 21.5044 20 21.6324 20H22.1124C22.5604 20 22.9658 20.0214 23.3284 20.064C23.7124 20.1067 24.0644 20.16 24.3844 20.224C25.6431 20.544 26.3791 20.704 26.5924 20.704C26.9764 20.704 27.1684 20.544 27.1684 20.224C27.1684 20.096 27.1471 19.9894 27.1044 19.904C27.0831 19.8187 27.0724 19.7547 27.0724 19.712C27.0724 19.648 27.0724 19.6054 27.0724 19.584C27.0724 19.5627 27.0724 19.552 27.0724 19.552C27.0938 19.5307 27.1044 19.52 27.1044 19.52C27.1258 19.52 27.1471 19.5307 27.1684 19.552C27.3604 19.744 27.4564 20 27.4564 20.32C27.4564 21.1307 26.9124 21.536 25.8244 21.536C25.6111 21.536 25.3764 21.5147 25.1204 21.472C24.8644 21.4294 24.5871 21.344 24.2884 21.216L22.8484 20.64C22.4644 20.4694 22.0698 20.3627 21.6644 20.32C21.2591 20.2987 20.8431 20.288 20.4164 20.288L20.3844 20.192C21.6431 19.296 22.8058 18.24 23.8724 17.024C24.6404 16.1707 25.5471 14.88 26.5924 13.152C26.6564 13.0454 26.7844 12.832 26.9764 12.512H22.1444C20.9498 14.2187 19.8298 15.7014 18.7844 16.96C17.7391 18.1974 16.7791 19.1894 15.9044 19.936C13.1738 22.3467 10.2618 23.552 7.16842 23.552ZM33.9524 5.88803C35.0404 5.88803 35.5844 5.49336 35.5844 4.70403C35.5844 4.23469 35.3924 3.87203 35.0084 3.61603C34.6671 3.36003 34.2511 3.23203 33.7604 3.23203C32.4378 3.23203 31.2431 3.57336 30.1764 4.25603C30.5178 4.40536 30.8591 4.57603 31.2004 4.76803C31.5418 4.93869 31.8831 5.10936 32.2244 5.28003L33.6004 3.87202C33.6431 3.87202 33.6644 3.89336 33.6644 3.93603C33.6644 4.06403 33.3551 4.59736 32.7364 5.53603C33.1418 5.77069 33.5471 5.88803 33.9524 5.88803ZM22.4004 12.16H27.2004C28.5444 9.94136 30.1444 7.70136 32.0004 5.44003L29.7604 4.51202C29.2271 4.85336 28.6191 5.31203 27.9364 5.88803C27.2751 6.46403 26.5604 7.16803 25.7924 8.00003C24.4698 9.45069 23.3391 10.8374 22.4004 12.16ZM28.8864 21.152L28.8544 21.088C29.6224 19.424 30.6144 17.12 31.8304 14.176C32.0224 13.6854 32.2464 13.0774 32.5024 12.352C32.7798 11.6267 33.0891 10.784 33.4304 9.82403H33.4944C33.7078 9.99469 33.8891 10.08 34.0384 10.08C34.5718 10.08 35.0731 9.62136 35.5424 8.70403V8.73603C35.5424 8.77869 35.0731 9.92003 34.1344 12.16C33.6224 13.376 33.2384 14.304 32.9824 14.944C32.7264 15.584 32.5771 15.9467 32.5344 16.032C34.9664 11.6587 36.9078 9.47202 38.3584 9.47202C38.6784 9.47202 38.9664 9.57869 39.2224 9.79203C39.4784 10.0054 39.6064 10.2827 39.6064 10.624C39.6064 11.52 38.9984 12.992 37.7824 15.04C36.5664 17.088 35.9584 18.4854 35.9584 19.232C35.9584 19.5094 36.0651 19.7227 36.2784 19.872C36.4918 20.0214 36.7478 20.096 37.0464 20.096C37.3451 20.096 37.6544 20.032 37.9744 19.904C38.2944 19.776 38.5611 19.6374 38.7744 19.488C39.3504 19.04 39.8411 18.5174 40.2464 17.92C40.6518 17.3227 41.0038 16.7254 41.3024 16.128C41.6011 15.5307 41.8678 15.0294 42.1024 14.624C42.1664 14.5174 42.2304 14.4854 42.2944 14.528C42.3584 14.5494 42.3691 14.6134 42.3264 14.72C41.8998 15.616 41.4304 16.5334 40.9184 17.472C40.4064 18.4107 39.7558 19.1574 38.9664 19.712C38.6891 19.904 38.3798 20.064 38.0384 20.192C37.7184 20.32 37.3771 20.384 37.0144 20.384C36.4171 20.384 35.9264 20.224 35.5424 19.904C35.1798 19.584 34.9984 19.0934 34.9984 18.432C34.9984 17.28 35.5318 15.8294 36.5984 14.08C37.6864 12.288 38.2304 11.1574 38.2304 10.688C38.2304 10.3254 38.0278 10.144 37.6224 10.144H37.4304C36.9611 10.144 36.3211 10.688 35.5104 11.776C34.6998 12.8427 33.7184 14.4214 32.5664 16.512C32.2891 16.9814 32.0011 17.5254 31.7024 18.144C31.4251 18.7414 31.1264 19.4134 30.8064 20.16L30.7424 20.192C30.4864 20.064 30.2624 20 30.0704 20C29.7931 20 29.5584 20.1707 29.3664 20.512C29.1958 20.8747 29.0358 21.088 28.8864 21.152ZM43.4839 20.224C42.7159 20.224 42.1719 19.904 41.8519 19.264C41.5319 18.624 41.3719 17.92 41.3719 17.152C41.3719 16.3627 41.4893 15.68 41.7239 15.104C42.0226 14.3147 42.4599 13.5147 43.0359 12.704C43.6119 11.872 44.3053 11.1787 45.1159 10.624C45.9266 10.048 46.8119 9.76003 47.7719 9.76003C48.8386 9.76003 49.3719 10.3787 49.3719 11.616C49.3719 12.2347 49.2439 12.896 48.9879 13.6L54.2039 3.36003H54.2679C54.3533 3.44536 54.5026 3.48803 54.7159 3.48803C55.1639 3.48803 55.6973 3.24269 56.3159 2.75203L56.3799 2.81602L51.5799 12C49.7239 15.5627 48.7959 17.8987 48.7959 19.008C48.7959 19.584 49.0306 19.872 49.4999 19.872C49.7559 19.872 50.0653 19.776 50.4279 19.584C50.7906 19.392 51.1746 19.072 51.5799 18.624C52.0919 18.0267 52.5293 17.4614 52.8919 16.928C53.2759 16.3734 53.7133 15.6267 54.2039 14.688C54.2679 14.5814 54.3319 14.528 54.3959 14.528C54.5239 14.528 54.5239 14.6347 54.3959 14.848C54.0119 15.5734 53.5959 16.2987 53.1479 17.024C52.7213 17.728 52.1986 18.3894 51.5799 19.008C50.8119 19.776 50.0973 20.16 49.4359 20.16C48.9026 20.16 48.4546 20.0107 48.0919 19.712C47.7506 19.4134 47.5799 18.9014 47.5799 18.176C47.5799 17.4934 47.6973 16.736 47.9319 15.904C46.4386 18.784 44.9559 20.224 43.4839 20.224ZM43.7079 19.936C44.2839 19.936 44.9666 19.5094 45.7559 18.656C46.5453 17.8027 47.3666 16.5654 48.2199 14.944C48.3053 14.7734 48.4119 14.5067 48.5399 14.144C48.6893 13.76 48.8173 13.344 48.9239 12.896C49.0519 12.4267 49.1159 11.9894 49.1159 11.584C49.1159 11.1574 49.0306 10.8054 48.8599 10.528C48.6893 10.2507 48.3906 10.112 47.9639 10.112C47.5586 10.112 47.1213 10.2614 46.6519 10.56C46.2039 10.8374 45.7346 11.3174 45.2439 12C44.4333 13.088 43.8466 14.144 43.4839 15.168C43.4413 15.296 43.3666 15.552 43.2599 15.936C43.1533 16.2987 43.0573 16.7147 42.9719 17.184C42.8866 17.632 42.8439 18.0694 42.8439 18.496C42.8439 18.9014 42.9079 19.2427 43.0359 19.52C43.1639 19.7974 43.3879 19.936 43.7079 19.936ZM51.6402 27.712C50.4242 27.712 49.8162 27.2427 49.8162 26.304C49.8162 25.2587 50.6908 24.2774 52.4402 23.36C52.6535 23.2534 52.9948 23.1254 53.4642 22.976C53.9548 22.8267 54.5628 22.6454 55.2882 22.432C55.8002 22.304 56.2588 22.176 56.6642 22.048C57.0695 21.9414 57.4322 21.8347 57.7522 21.728C57.8588 21.4294 57.9975 21.0667 58.1682 20.64C58.3388 20.2347 58.5095 19.7654 58.6802 19.232C58.7868 18.9547 58.8935 18.6134 59.0002 18.208C59.1282 17.7814 59.2882 17.2907 59.4802 16.736C59.6722 16.1814 59.9175 15.5734 60.2162 14.912C60.5362 14.2507 60.9095 13.5574 61.3362 12.832C61.1228 13.088 60.8668 13.4294 60.5682 13.856C60.2908 14.2614 59.9708 14.7414 59.6082 15.296C58.5842 16.8747 57.8908 17.8774 57.5282 18.304C56.4828 19.584 55.5335 20.224 54.6802 20.224C54.1255 20.224 53.6668 20.0427 53.3042 19.68C52.9628 19.2747 52.7922 18.8054 52.7922 18.272C52.7922 17.312 53.1442 16.224 53.8482 15.008C53.9548 14.8374 54.1682 14.5174 54.4882 14.048C54.8082 13.5574 55.2562 12.896 55.8322 12.064C56.5362 11.04 56.8882 10.304 56.8882 9.85603C56.8882 9.62136 56.7495 9.50403 56.4722 9.50403C56.2162 9.50403 55.9708 9.58936 55.7362 9.76003C55.4802 9.93069 55.3308 10.1334 55.2882 10.368L55.2242 10.432H55.1282L55.0642 10.4C55.1068 10.1227 55.2882 9.86669 55.6082 9.63203C55.9068 9.41869 56.2055 9.28003 56.5042 9.21603C56.6108 9.19469 56.7175 9.18403 56.8242 9.18403C56.9522 9.16269 57.0695 9.15203 57.1762 9.15203C57.9655 9.15203 58.3602 9.46136 58.3602 10.08C58.3602 10.912 57.6455 12.2987 56.2162 14.24C54.8722 16.1174 54.2002 17.664 54.2002 18.88C54.2002 19.5414 54.4668 19.872 55.0002 19.872C55.8535 19.872 57.3468 18.2294 59.4802 14.944C61.2722 12.1707 62.7548 10.3574 63.9282 9.50403C64.4828 9.07736 64.9095 8.86403 65.2082 8.86403C65.4428 8.86403 65.5602 8.98136 65.5602 9.21603C65.5602 9.45069 65.3042 9.65336 64.7922 9.82403C63.6188 10.1654 62.6375 11.008 61.8482 12.352C61.5495 12.8854 61.2828 13.4614 61.0482 14.08C60.8135 14.6987 60.6428 15.3707 60.5362 16.096C60.4508 16.5014 60.3762 16.9067 60.3122 17.312C60.2695 17.7174 60.2162 18.1227 60.1522 18.528C60.0668 18.9334 59.9815 19.328 59.8962 19.712C59.8108 20.096 59.6935 20.512 59.5442 20.96C62.3388 19.68 64.4295 17.632 65.8162 14.816C65.8802 14.7094 65.9335 14.656 65.9762 14.656C66.0828 14.656 66.1042 14.7414 66.0402 14.912C65.3362 16.384 64.4295 17.664 63.3202 18.752C62.2322 19.8187 60.9308 20.672 59.4162 21.312C58.8828 22.6347 58.2642 23.7334 57.5602 24.608C56.8775 25.504 55.9068 26.2827 54.6482 26.944C53.6882 27.456 52.6855 27.712 51.6402 27.712ZM51.8322 27.424C54.1788 27.424 56.0882 25.6854 57.5602 22.208C57.2402 22.3147 56.8775 22.432 56.4722 22.56C56.0668 22.7094 55.6188 22.848 55.1282 22.976C54.8508 23.0614 54.4988 23.168 54.0722 23.296C53.6455 23.4454 53.1548 23.6267 52.6002 23.84C52.3442 23.9894 52.0988 24.1494 51.8642 24.32C51.6295 24.512 51.3948 24.7254 51.1602 24.96C50.6268 25.536 50.3602 26.0587 50.3602 26.528C50.3602 27.1254 50.8508 27.424 51.8322 27.424ZM71.5902 21.088C69.7128 21.088 68.7742 20.5654 68.7742 19.52C68.7742 19.0294 69.0408 18.656 69.5742 18.4C70.0008 18.1867 70.4915 18.08 71.0462 18.08C71.8142 18.08 73.2968 18.528 75.4942 19.424C76.1128 18.9334 76.7102 18.3254 77.2862 17.6C77.8622 16.8747 78.4062 16.0214 78.9182 15.04C79.3448 14.208 79.7608 13.3654 80.1662 12.512C80.5715 11.6587 80.9768 10.8054 81.3822 9.95203C83.0888 6.43202 85.0408 3.86136 87.2382 2.24002C85.3822 1.42936 83.4942 1.02402 81.5742 1.02402C79.2915 1.02402 77.2968 1.38669 75.5902 2.11202C73.5208 2.98669 71.9955 4.29869 71.0142 6.04803C70.4168 7.11469 70.1182 8.22403 70.1182 9.37603C70.1182 10.5067 70.4382 11.4454 71.0782 12.192C71.7608 12.96 72.6675 13.344 73.7982 13.344C75.1848 13.344 76.4435 12.8747 77.5742 11.936C78.7902 10.976 79.3982 9.80269 79.3982 8.41603C79.3982 7.69069 79.1102 7.04003 78.5342 6.46403C77.9582 5.90936 77.2862 5.63202 76.5182 5.63202C75.8355 5.63202 75.2168 5.85603 74.6622 6.30403C74.1075 6.79469 73.8302 7.37069 73.8302 8.03203C73.8302 8.56536 74.1075 8.83203 74.6622 8.83203C74.8542 8.83203 74.9502 8.86403 74.9502 8.92803C74.9502 9.03469 74.8435 9.08803 74.6302 9.08803C73.8622 9.08803 73.4782 8.73603 73.4782 8.03203C73.4782 7.22136 73.7875 6.57069 74.4062 6.08003C75.0248 5.56803 75.7182 5.31203 76.4862 5.31203C77.4675 5.31203 78.2782 5.66402 78.9182 6.36802C79.5582 7.02936 79.8782 7.84003 79.8782 8.80002C79.8782 10.2507 79.2488 11.456 77.9902 12.416C76.8595 13.2907 75.5475 13.728 74.0542 13.728C72.6035 13.728 71.3768 13.2907 70.3742 12.416C69.3288 11.4987 68.8062 10.3254 68.8062 8.89603C68.8062 8.53336 68.8382 8.16003 68.9022 7.77603C68.9875 7.39203 69.0942 7.00803 69.2222 6.62403C70.0328 4.44803 71.5795 2.84803 73.8622 1.82402C75.7608 0.992025 78.0115 0.576025 80.6142 0.576025C83.1315 0.576025 85.5208 1.01336 87.7822 1.88803C89.2328 0.906692 90.6515 0.416025 92.0382 0.416025C92.2515 0.416025 92.3688 0.458692 92.3902 0.544025C92.3902 0.544025 92.3155 0.565358 92.1662 0.608025C91.5688 0.714691 91.0888 0.800025 90.7262 0.864025C90.3848 0.928026 90.1608 0.981359 90.0542 1.02402C89.7128 1.10936 89.3715 1.23736 89.0302 1.40803C88.7102 1.57869 88.4008 1.78136 88.1022 2.01603C92.3475 3.80803 94.4702 6.48536 94.4702 10.048C94.4702 10.3894 94.4488 10.7307 94.4062 11.072C94.3635 11.392 94.2995 11.7227 94.2142 12.064C93.5102 15.0507 91.8995 17.3014 89.3822 18.816C87.1635 20.1387 84.4115 20.8 81.1262 20.8C79.0995 20.8 77.3928 20.5334 76.0062 20C74.6408 20.7254 73.1688 21.088 71.5902 21.088ZM80.6142 20.544C83.9208 20.544 86.7155 19.6587 88.9982 17.888C91.4728 15.9894 92.7102 13.4187 92.7102 10.176H92.7422C92.7422 6.67736 91.0355 4.09603 87.6222 2.43203C86.1715 3.79736 84.8168 6.19736 83.5582 9.63203C81.7235 14.6667 79.3342 18.048 76.3902 19.776C77.7768 20.288 79.1848 20.544 80.6142 20.544ZM71.6862 20.832C72.9022 20.832 74.0542 20.448 75.1422 19.68C73.3288 18.976 71.9848 18.624 71.1102 18.624C69.9368 18.624 69.3502 19.008 69.3502 19.776C69.3502 20.48 70.1288 20.832 71.6862 20.832ZM98.3844 20.352C97.4458 20.352 96.7311 19.9467 96.2404 19.136C95.7924 18.4534 95.5684 17.6214 95.5684 16.64C95.5684 14.9547 96.1018 13.3867 97.1684 11.936C98.3418 10.3574 99.7498 9.56803 101.392 9.56803C102.224 9.56803 102.864 9.85603 103.312 10.432C103.739 10.9867 103.952 11.6907 103.952 12.544C103.952 12.928 103.91 13.3227 103.824 13.728C103.76 14.1334 103.654 14.56 103.504 15.008C103.184 15.9467 102.79 16.6827 102.32 17.216L102.384 17.312C102.598 17.4614 102.854 17.536 103.152 17.536C103.771 17.536 104.294 17.3334 104.72 16.928C105.147 16.5227 105.627 15.7974 106.16 14.752C106.182 14.6667 106.224 14.624 106.288 14.624C106.331 14.624 106.363 14.656 106.384 14.72C106.406 14.7627 106.395 14.8267 106.352 14.912C105.904 15.8507 105.424 16.5654 104.912 17.056C104.422 17.5467 103.846 17.792 103.184 17.792C102.758 17.792 102.427 17.6747 102.192 17.44C101.979 17.824 101.744 18.1867 101.488 18.528C101.232 18.848 100.944 19.136 100.624 19.392C99.8991 20.032 99.1524 20.352 98.3844 20.352ZM98.6084 20.096C99.7391 20.096 100.848 19.232 101.936 17.504C101.936 17.44 101.968 17.376 102.032 17.312C101.648 16.672 101.456 16.064 101.456 15.488C101.456 15.4667 101.456 15.424 101.456 15.36C101.456 15.2747 101.467 15.168 101.488 15.04C101.51 14.8054 101.552 14.5707 101.616 14.336C101.68 14.08 101.787 13.8454 101.936 13.632C102.256 13.12 102.64 12.864 103.088 12.864H103.376C103.462 12.8854 103.526 12.896 103.568 12.896C103.611 12.896 103.643 12.896 103.664 12.896C103.664 10.976 103.056 10.016 101.84 10.016C100.816 10.016 99.8458 10.6347 98.9284 11.872C98.1818 12.8534 97.6484 13.952 97.3284 15.168C97.1364 15.8294 97.0404 16.5227 97.0404 17.248C97.0404 19.1467 97.5631 20.096 98.6084 20.096ZM103.48 21.152L103.448 21.088C104.216 19.424 105.208 17.12 106.424 14.176C106.616 13.6854 106.84 13.0774 107.096 12.352C107.374 11.6267 107.683 10.784 108.024 9.82403H108.088C108.302 9.99469 108.483 10.08 108.632 10.08C109.166 10.08 109.667 9.62136 110.136 8.70403V8.73603C110.136 8.77869 109.667 9.92003 108.728 12.16C108.216 13.376 107.832 14.304 107.576 14.944C107.32 15.584 107.171 15.9467 107.128 16.032C109.56 11.6587 111.502 9.47202 112.952 9.47202C113.272 9.47202 113.56 9.57869 113.816 9.79203C114.072 10.0054 114.2 10.2827 114.2 10.624C114.2 11.52 113.592 12.992 112.376 15.04C111.16 17.088 110.552 18.4854 110.552 19.232C110.552 19.5094 110.659 19.7227 110.872 19.872C111.086 20.0214 111.342 20.096 111.64 20.096C111.939 20.096 112.248 20.032 112.568 19.904C112.888 19.776 113.155 19.6374 113.368 19.488C113.944 19.04 114.435 18.5174 114.84 17.92C115.246 17.3227 115.598 16.7254 115.896 16.128C116.195 15.5307 116.462 15.0294 116.696 14.624C116.76 14.5174 116.824 14.4854 116.888 14.528C116.952 14.5494 116.963 14.6134 116.92 14.72C116.494 15.616 116.024 16.5334 115.512 17.472C115 18.4107 114.35 19.1574 113.56 19.712C113.283 19.904 112.974 20.064 112.632 20.192C112.312 20.32 111.971 20.384 111.608 20.384C111.011 20.384 110.52 20.224 110.136 19.904C109.774 19.584 109.592 19.0934 109.592 18.432C109.592 17.28 110.126 15.8294 111.192 14.08C112.28 12.288 112.824 11.1574 112.824 10.688C112.824 10.3254 112.622 10.144 112.216 10.144H112.024C111.555 10.144 110.915 10.688 110.104 11.776C109.294 12.8427 108.312 14.4214 107.16 16.512C106.883 16.9814 106.595 17.5254 106.296 18.144C106.019 18.7414 105.72 19.4134 105.4 20.16L105.336 20.192C105.08 20.064 104.856 20 104.664 20C104.387 20 104.152 20.1707 103.96 20.512C103.79 20.8747 103.63 21.088 103.48 21.152ZM116.318 29.856C115.678 29.8134 115.187 29.5574 114.846 29.088C114.504 28.64 114.27 28.096 114.142 27.456C114.014 26.8374 113.95 26.2614 113.95 25.728C113.95 22.6987 114.899 18.7414 116.798 13.856C119.358 7.39203 122.024 3.16803 124.798 1.18402C125.715 0.522691 126.558 0.192024 127.326 0.192024C128.328 0.192024 128.83 0.650691 128.83 1.56803C128.83 4.17069 125.299 8.73603 118.238 15.264H118.27C116.179 20.5974 115.134 24.5974 115.134 27.264C115.134 28.0534 115.251 28.6294 115.486 28.992C115.72 29.3547 116.062 29.536 116.51 29.536C117.107 29.536 117.64 29.2374 118.11 28.64C118.579 28.0427 118.974 27.2854 119.294 26.368C119.614 25.4507 119.827 24.5227 119.934 23.584C119.955 23.4347 119.966 23.2854 119.966 23.136C119.966 23.008 119.966 22.8694 119.966 22.72C119.966 21.9734 119.88 21.3014 119.71 20.704C119.56 20.128 119.336 19.7334 119.038 19.52C117.992 19.4987 117.47 19.2214 117.47 18.688C117.47 18.432 117.619 18.304 117.918 18.304C118.408 18.304 118.846 18.6347 119.23 19.296C120.019 19.3387 120.691 19.2427 121.246 19.008C121.8 18.7734 122.344 18.4107 122.878 17.92C123.368 17.4934 123.816 16.9814 124.222 16.384C124.627 15.7654 124.936 15.2214 125.15 14.752C125.256 14.5814 125.331 14.496 125.374 14.496C125.416 14.496 125.438 14.528 125.438 14.592C125.438 14.6774 125.416 14.7627 125.374 14.848C124.584 16.4267 123.699 17.6214 122.718 18.432C121.736 19.2214 120.648 19.5947 119.454 19.552C119.71 19.8294 119.912 20.256 120.062 20.832C120.211 21.408 120.286 22.048 120.286 22.752C120.286 23.5414 120.19 24.352 119.998 25.184C119.806 26.0374 119.539 26.816 119.198 27.52C118.856 28.2454 118.44 28.8214 117.95 29.248C117.459 29.6747 116.915 29.8774 116.318 29.856ZM118.494 14.72C125.171 8.44803 128.51 4.04269 128.51 1.50402C128.51 0.800025 128.19 0.448025 127.55 0.448025C126.056 0.448025 124.254 2.45336 122.142 6.46403C120.734 9.08803 119.518 11.84 118.494 14.72ZM132.466 20.16C131.356 20.16 130.802 19.392 130.802 17.856C130.802 17.2587 130.898 16.576 131.09 15.808C129.596 18.688 128.114 20.128 126.642 20.128C125.938 20.128 125.404 19.776 125.042 19.072C124.743 18.5387 124.594 17.8667 124.594 17.056C124.594 16.3947 124.69 15.7014 124.882 14.976C125.244 13.7174 126.012 12.5334 127.186 11.424C128.487 10.2294 129.724 9.63203 130.898 9.63203C131.964 9.63203 132.498 10.272 132.498 11.552C132.498 12.1067 132.38 12.7574 132.146 13.504L134.098 9.66403H134.194C134.258 9.77069 134.396 9.82403 134.61 9.82403C135.036 9.82403 135.58 9.56803 136.242 9.05603L136.306 9.12003L133.586 14.432C132.498 16.544 131.954 18.144 131.954 19.232C131.954 19.6587 132.146 19.872 132.53 19.872C132.786 19.872 133.095 19.776 133.458 19.584C133.82 19.392 134.204 19.072 134.61 18.624C135.122 18.0267 135.559 17.4614 135.922 16.928C136.306 16.3734 136.743 15.6267 137.234 14.688C137.298 14.5814 137.362 14.528 137.426 14.528C137.554 14.528 137.554 14.6347 137.426 14.848C137.042 15.5734 136.626 16.2987 136.178 17.024C135.751 17.728 135.228 18.3894 134.61 19.008C133.842 19.776 133.127 20.16 132.466 20.16ZM126.77 19.904C127.964 19.904 129.5 18.2187 131.378 14.848C131.975 13.7814 132.274 12.704 132.274 11.616C132.274 10.464 131.9 9.88803 131.154 9.88803C130.343 9.88803 129.426 10.56 128.402 11.904C127.996 12.4587 127.644 13.0027 127.346 13.536C127.068 14.0694 126.844 14.5814 126.674 15.072C126.226 16.352 126.002 17.504 126.002 18.528C126.002 19.4454 126.258 19.904 126.77 19.904ZM139.311 20.384C138.479 20.384 137.797 20.1494 137.263 19.68C136.73 19.2107 136.463 18.4747 136.463 17.472C136.463 16.6614 136.623 15.808 136.943 14.912C137.263 14.016 137.743 13.1414 138.383 12.288C139.77 10.4534 141.21 9.53603 142.703 9.53603C144.09 9.53603 144.783 10.1654 144.783 11.424C144.783 11.8934 144.634 12.4054 144.335 12.96C143.973 13.5787 143.578 13.888 143.151 13.888C142.831 13.888 142.671 13.76 142.671 13.504C142.671 13.2267 142.959 12.8854 143.535 12.48C144.111 12.0534 144.399 11.5734 144.399 11.04C144.399 10.3147 144.026 9.95203 143.279 9.95203C142.49 9.95203 141.615 10.528 140.655 11.68C139.973 12.5334 139.397 13.4507 138.927 14.432C138.714 14.8587 138.501 15.424 138.287 16.128C138.074 16.8107 137.967 17.472 137.967 18.112C137.967 18.6454 138.085 19.104 138.319 19.488C138.554 19.872 138.97 20.064 139.567 20.064C140.122 20.064 140.698 19.9147 141.295 19.616C141.893 19.296 142.405 18.9227 142.831 18.496C143.194 18.1334 143.599 17.6427 144.047 17.024C144.517 16.384 144.986 15.6054 145.455 14.688C145.519 14.5814 145.583 14.528 145.647 14.528C145.775 14.528 145.775 14.6347 145.647 14.848C145.285 15.5734 144.89 16.2667 144.463 16.928C144.058 17.5894 143.514 18.2294 142.831 18.848C142.426 19.2534 141.914 19.616 141.295 19.936C140.677 20.2347 140.015 20.384 139.311 20.384ZM142.986 20.32C142.965 20.32 142.954 20.2987 142.954 20.256C142.954 20.2134 142.965 20.1814 142.986 20.16C148.554 6.72003 153.354 2.47955e-05 157.386 2.47955e-05C158.368 2.47955e-05 158.858 0.416025 158.858 1.24803C158.858 2.12269 158.464 3.09336 157.674 4.16003C156.181 6.25069 154.09 7.91469 151.402 9.15203C150.656 9.49336 150.058 9.71736 149.61 9.82403C149.568 9.84536 149.493 9.85603 149.386 9.85603C148.682 11.072 148.01 12.2774 147.37 13.472C146.73 14.6454 146.133 15.8187 145.578 16.992C148.629 11.8294 151.232 9.24802 153.386 9.24802C154.176 9.24802 154.57 9.62136 154.57 10.368C154.57 11.584 153.653 12.5654 151.818 13.312C151.626 13.3974 151.36 13.4934 151.018 13.6C150.677 13.7067 150.25 13.824 149.738 13.952H149.802C150.037 13.952 150.24 14.144 150.41 14.528C150.453 14.6774 150.496 14.8374 150.538 15.008C150.581 15.1574 150.602 15.3174 150.602 15.488C150.602 15.8934 150.506 16.48 150.314 17.248C150.229 17.6534 150.165 18.0054 150.122 18.304C150.08 18.5814 150.058 18.816 150.058 19.008C150.058 19.6054 150.314 19.904 150.826 19.904C151.637 19.904 152.533 19.2214 153.514 17.856C153.877 17.408 154.197 16.9387 154.474 16.448C154.773 15.9574 155.082 15.4134 155.402 14.816C155.445 14.7307 155.52 14.6774 155.626 14.656C155.733 14.6347 155.733 14.72 155.626 14.912C155.328 15.5094 155.008 16.0854 154.666 16.64C154.346 17.1947 153.994 17.7174 153.61 18.208C152.565 19.552 151.562 20.224 150.602 20.224C149.194 20.224 148.49 19.6694 148.49 18.56C148.49 18.112 148.618 17.4614 148.874 16.608C149.13 15.7334 149.258 15.104 149.258 14.72C149.258 14.208 148.97 13.952 148.394 13.952C148.309 13.952 148.266 13.92 148.266 13.856C148.266 13.7707 148.33 13.728 148.458 13.728C148.842 13.7067 149.237 13.6427 149.642 13.536C150.069 13.408 150.496 13.2267 150.922 12.992C151.733 12.5867 152.405 12.064 152.938 11.424C153.429 10.8054 153.674 10.2934 153.674 9.88803C153.674 9.63203 153.525 9.50403 153.226 9.50403C152.522 9.50403 151.552 10.0907 150.314 11.264C149.866 11.6907 149.44 12.128 149.034 12.576C148.65 13.0027 148.277 13.4614 147.914 13.952C147.125 14.9974 146.229 16.4374 145.226 18.272C145.098 18.4854 144.949 18.752 144.778 19.072C144.629 19.3707 144.448 19.712 144.234 20.096C144.234 20.096 144.224 20.096 144.202 20.096C144.202 20.1174 144.192 20.128 144.17 20.128C144.021 20 143.882 19.936 143.754 19.936C143.541 19.936 143.37 20 143.242 20.128C143.093 20.256 143.008 20.32 142.986 20.32ZM149.578 9.56803H149.642C151.05 9.20536 152.586 8.32003 154.25 6.91203C157.088 4.54403 158.506 2.61336 158.506 1.12003C158.506 0.608025 158.24 0.352024 157.706 0.352024C156.49 0.352024 154.954 1.60002 153.098 4.09603C152.693 4.62936 152.202 5.35469 151.626 6.27203C151.05 7.16803 150.368 8.26669 149.578 9.56803Z" fill="white"/>
</svg>
